<?xml version="1.0" encoding="utf-8"?>
<!-- Svg Vector Icons : http://www.onlinewebfonts.com/icon -->
<!DOCTYPE svg PUBLIC "-//W3C//DTD SVG 1.1//EN" "http://www.w3.org/Graphics/SVG/1.1/DTD/svg11.dtd">
<svg version="1.1" xmlns="http://www.w3.org/2000/svg" xmlns:xlink="http://www.w3.org/1999/xlink" x="0px" y="0px" viewBox="0 0 1000 1000" enable-background="new 0 0 1000 1000" xml:space="preserve">
<metadata> Svg Vector Icons : http://www.onlinewebfonts.com/icon </metadata>
<g><g><path d="M758.4,500l184.7-184.7c62.5-62.5,62.5-164.3,0.1-226.9l-31.5-31.4C881.6,26.6,841.2,10,798.2,10c-42.9,0-83.2,16.6-113.4,46.9L500,241.6L315.2,56.9C285.1,26.6,244.8,10,201.8,10c-43,0-83.3,16.7-113.6,47L56.9,88.2c-62.5,62.7-62.5,164.5-0.1,227L241.6,500L56.9,684.7c-62.5,62.6-62.5,164.4,0,226.9l31.4,31.4c30.3,30.3,70.6,46.9,113.5,46.9c43,0,83.3-16.7,113.5-47L500,758.4l184.7,184.7C715,973.4,755.3,990,798.2,990c42.9,0,83.3-16.7,113.5-46.9l31.4-31.4c62.5-62.6,62.5-164.4,0.1-226.9L758.4,500z M892.4,861L861,892.4c-17.2,17.2-40,25.9-62.8,25.9c-22.8,0-45.5-8.6-62.7-25.9L500,657L264.5,892.4c-17.2,17.2-40,25.9-62.7,25.9c-22.8,0-45.5-8.6-62.8-25.9L107.6,861c-34.5-34.5-34.5-91,0-125.5L343,500L107.6,264.6c-34.5-34.5-34.5-91,0-125.6l31.4-31.4c17.2-17.3,40-25.9,62.8-25.9c22.8,0,45.5,8.6,62.7,25.9L500,343l235.4-235.5c17.3-17.3,40.1-25.9,62.7-25.9c22.8,0,45.6,8.6,62.8,25.9l31.4,31.4c34.5,34.6,34.5,91,0,125.6L657,500l235.4,235.5C926.9,770,926.9,826.5,892.4,861z"/></g><g></g><g></g><g></g><g></g><g></g><g></g><g></g><g></g><g></g><g></g><g></g><g></g><g></g><g></g><g></g></g>
</svg>